<svg xmlns="http://www.w3.org/2000/svg" width="681.295" height="125.314" viewBox="0 0 681.295 125.314">
  <g id="Group_71" data-name="Group 71" transform="translate(-82.176 -1100.143)">
    <path id="Path_23" data-name="Path 23" d="M7.861,0h7.324V-29.3H35.645c8.447,0,12.451,4.541,12.451,10.791V-7.422c0,3.223.488,5.713,1.563,7.422h7.813A13.9,13.9,0,0,1,55.42-7.52V-18.457c0-6.885-2.93-12.3-10.449-14.5v.977C52.051-34.717,56.3-41.211,56.3-48.975c0-10.889-8.594-19.141-20.459-19.141H7.861Zm7.324-35.693V-61.719H35.645c7.813,0,13.33,5.518,13.33,12.939,0,7.275-5.322,13.086-13.33,13.086Z" transform="translate(706 1208)" fill="#fff"/>
    <path id="Path_22" data-name="Path 22" d="M7.861,0h7.324V-29.3H35.645c8.447,0,12.451,4.541,12.451,10.791V-7.422c0,3.223.488,5.713,1.563,7.422h7.813A13.9,13.9,0,0,1,55.42-7.52V-18.457c0-6.885-2.93-12.3-10.449-14.5v.977C52.051-34.717,56.3-41.211,56.3-48.975c0-10.889-8.594-19.141-20.459-19.141H7.861Zm7.324-35.693V-61.719H35.645c7.813,0,13.33,5.518,13.33,12.939,0,7.275-5.322,13.086-13.33,13.086ZM71.338,0h24.17c19.043,0,30.566-13.77,30.566-34.082,0-20.41-11.719-34.033-30.42-34.033H71.338Zm7.324-6.4V-61.719H94.775c15.039,0,23.828,10.889,23.828,27.588C118.6-17.139,109.57-6.4,94.775-6.4ZM161.768,0h7.324V-31.006h32.129v-6.445H169.092V-61.719H206.1v-6.4H161.768Zm55.371,0h7.324V-68.115h-7.324Zm23.047,0h7.031V-61.084h-1.123L282.031,0h9.912V-68.115h-7.031V-6.934h1.172L250.1-68.115h-9.912Zm67.48,0h24.17C350.879,0,362.4-13.77,362.4-34.082c0-20.41-11.719-34.033-30.42-34.033H307.666Zm7.324-6.4V-61.719H331.1c15.039,0,23.828,10.889,23.828,27.588C354.932-17.139,345.9-6.4,331.1-6.4Z" transform="translate(289 1208)" fill="#fff"/>
    <path id="Path_21" data-name="Path 21" d="M35.4,1.27c15.674,0,25.977-9.814,28.809-25.146H56.836c-2,10.547-9.961,18.6-21.289,18.6C21-5.273,12.6-18.6,12.6-34.57c0-15.625,8.154-28.32,23.682-28.32,10.059,0,17.285,5.322,20.41,14.844h7.373C60.449-61.816,50-69.385,36.035-69.385c-18.994,0-30.859,14.111-30.859,35.107C5.176-14.16,15.967,1.27,35.4,1.27ZM76.172,0H83.5V-32.031h37.061V0h7.324V-68.115h-7.324v29.688H83.5V-68.115H76.172Z" transform="translate(77 1208)" fill="#fff"/>
    <path id="Path_18" data-name="Path 18" d="M0-50.114v26.67H1.849V-35.61H11.914c0,26.553,9.243,35.326,24.854,35.56V12.817H27.73v2.339H48.27V12.817H39.232V-.05C55.768-.518,64.086-13.268,64.086-35.61H74.151v12.165H76v-26.67H74.151v11.58H64.086c0-21.874-9.038-35.209-24.854-35.56V-86.961H48.27V-89.3H27.73v2.339h9.038v12.867c-12.941-.117-24.854,12.4-24.854,35.56H1.849v-11.58ZM36.768-2.74c-14.481,0-15.1-19.417-15.611-32.869H36.768ZM39.232-35.61H54.843C54.33-22.158,52.481-2.74,39.232-2.74Zm0-35.794c8.422.234,15.611,13.335,15.611,32.869H39.232ZM36.768-38.534H21.157c.1-17.663,7.6-32.986,15.611-32.869Z" transform="translate(213 1210.3)" fill="#fff"/>
    <path id="Path_20" data-name="Path 20" d="M36.291,31.95c-.152,0-.3.152-.456.152l-6.844,2.433V7.465l6.844-2.433c1.673-.608,2.433-4.41,2.433-7.756,0-3.042-.608-5.931-1.977-5.931-.152,0-.3.152-.456.152L28.991-6.07V-25.384A1.382,1.382,0,0,0,27.47-26.6a1.382,1.382,0,0,0-1.521,1.217V-5.005L12.566.013V-24.623c.912.456,4.714,1.217,8.516,2.585L11.046-48.5,1.008-22.038l8.364-2.585v25.7l-7,2.89C1.16,4.728.4,8.378.4,11.724v.608C.4,13.853.552,17.2,2.377,17.2l7-2.585v27.07l-7,2.585c-1.217.76-1.825,4.106-1.825,7.3S1.16,57.8,2.377,57.8l7-2.737V75.6c0,.912.76,1.217,1.521,1.217s1.673-.3,1.673-1.217V53.85l13.383-4.867V71.339c0,.76.76,1.065,1.521,1.065s1.521-.3,1.521-1.065V47.918l6.844-2.433c1.673-.608,2.433-4.41,2.433-7.756C38.268,34.688,37.66,31.95,36.291,31.95Zm-11.1,3.8L13.327,40.619V13.7L25.189,8.682Z" transform="translate(661.65 1148.643)" fill="#fff"/>
  </g>
</svg>
